<?xml version="1.0" standalone="no"?>
<!DOCTYPE svg PUBLIC "-//W3C//DTD SVG 20010904//EN"
 "http://www.w3.org/TR/2001/REC-SVG-20010904/DTD/svg10.dtd">
<svg version="1.0" xmlns="http://www.w3.org/2000/svg"
 width="1280.000000pt" height="1280.000000pt" viewBox="0 0 1280.000000 1280.000000"
 preserveAspectRatio="xMidYMid meet">
<metadata>
Created by potrace 1.16, written by Peter Selinger 2001-2019
</metadata>
<g transform="translate(0.000000,1280.000000) scale(0.100000,-0.100000)"
fill="#000000" stroke="none">
<path d="M6419 11811 c-14 -9 -33 -23 -41 -31 -8 -8 -32 -28 -53 -45 -56 -44
-166 -134 -194 -159 -45 -40 -296 -292 -336 -336 -60 -66 -207 -242 -230 -274
-11 -15 -40 -53 -64 -84 -57 -74 -168 -238 -211 -312 -11 -19 -39 -64 -61
-100 -23 -36 -45 -74 -50 -85 -5 -11 -23 -45 -40 -75 -55 -99 -109 -207 -109
-217 0 -6 -6 -16 -13 -22 -8 -6 -20 -30 -27 -53 -8 -24 -18 -49 -23 -56 -12
-15 -77 -163 -77 -174 0 -4 -11 -31 -24 -60 -13 -29 -27 -64 -31 -78 -4 -14
-13 -38 -21 -55 -7 -16 -18 -49 -24 -72 l-10 -42 -48 24 c-90 44 -222 105
-229 105 -4 0 -25 9 -47 19 -23 11 -99 38 -171 61 -71 23 -139 46 -150 50 -11
5 -58 19 -105 30 -78 20 -144 34 -365 74 -117 21 -423 39 -555 31 -203 -11
-353 -26 -415 -40 -33 -8 -89 -19 -125 -25 -55 -9 -88 -18 -177 -45 -8 -3 4
-39 36 -107 26 -57 54 -121 61 -143 7 -22 16 -44 20 -50 12 -15 75 -227 99
-330 26 -107 56 -327 86 -615 15 -147 51 -362 81 -480 22 -91 73 -259 89 -295
7 -16 18 -48 25 -70 7 -22 21 -56 31 -75 11 -19 19 -38 19 -42 0 -11 112 -242
121 -248 3 -3 16 -25 29 -50 27 -55 98 -164 160 -246 25 -33 56 -75 70 -94 26
-34 33 -43 110 -132 93 -107 278 -283 342 -326 13 -8 28 -20 33 -27 11 -12
108 -82 178 -127 87 -55 235 -136 317 -172 47 -21 102 -47 123 -57 21 -10 43
-19 50 -19 7 0 30 -9 52 -20 l40 -20 -165 5 c-91 3 -219 10 -285 15 -66 5
-253 14 -415 20 -266 10 -457 21 -578 36 l-43 5 73 38 c40 20 88 46 107 58 39
25 139 120 186 178 36 44 105 169 105 190 0 25 -70 38 -204 37 -109 0 -148 -4
-236 -27 -58 -15 -109 -30 -115 -34 -5 -4 -26 -14 -45 -21 -31 -12 -138 -71
-165 -92 -105 -80 -156 -130 -257 -251 l-23 -28 -92 7 c-76 6 -93 10 -93 23 1
22 35 272 55 399 9 57 14 109 12 116 -3 7 -20 16 -38 20 -78 15 -292 112 -382
173 -27 18 -53 33 -58 33 -4 0 -12 6 -16 13 -4 8 -15 18 -25 23 -9 5 -32 24
-52 42 -19 17 -37 32 -39 32 -2 0 -44 -39 -93 -87 -119 -118 -224 -195 -394
-293 -46 -26 -175 -87 -200 -94 -14 -4 -38 -14 -55 -21 -86 -39 -373 -106
-517 -121 -38 -3 -68 -10 -68 -14 0 -4 8 -18 17 -31 21 -28 36 -52 61 -93 9
-16 27 -41 40 -56 12 -15 22 -31 22 -34 0 -8 140 -192 171 -225 8 -9 51 -58
94 -110 43 -52 159 -173 257 -270 199 -197 189 -177 162 -311 -8 -41 -21 -120
-29 -175 -8 -55 -23 -147 -34 -205 -45 -239 -92 -552 -85 -560 11 -10 313 -69
599 -116 166 -27 544 -79 702 -96 60 -6 100 -15 97 -20 -4 -6 1 -6 12 0 22 11
39 6 68 -20 11 -10 28 -25 36 -32 14 -12 120 -84 200 -136 21 -14 79 -53 130
-87 50 -34 100 -65 111 -68 10 -4 19 -10 19 -13 0 -4 17 -16 38 -27 20 -11 39
-22 42 -25 7 -8 162 -101 198 -119 15 -7 43 -24 62 -36 47 -31 181 -103 415
-224 77 -40 145 -76 150 -81 6 -4 27 -13 48 -21 20 -7 37 -17 37 -21 0 -4 5
-8 11 -8 9 0 238 -111 309 -150 8 -5 101 -51 205 -102 159 -79 303 -155 375
-198 8 -5 44 -26 80 -47 36 -21 67 -41 70 -44 3 -4 23 -16 46 -27 22 -11 46
-28 53 -36 8 -9 17 -16 22 -16 5 0 28 -15 52 -32 24 -18 70 -51 102 -73 157
-109 352 -284 524 -471 66 -72 201 -240 201 -251 1 -4 14 -24 30 -43 17 -19
30 -39 30 -46 0 -6 7 -18 16 -25 9 -7 20 -24 25 -37 5 -14 12 -22 15 -19 7 7
-26 76 -71 147 -19 30 -37 61 -41 69 -9 18 -67 104 -94 139 -11 15 -28 37 -38
50 -46 61 -155 184 -227 256 -96 95 -259 236 -273 236 -6 0 -17 8 -24 18 -7
11 -24 25 -37 32 -14 7 -34 21 -45 31 -11 11 -23 19 -28 19 -4 0 -16 8 -26 17
-31 31 -281 193 -297 193 -5 0 -16 6 -24 14 -9 7 -51 32 -94 55 -43 22 -76 41
-72 41 18 0 152 -32 167 -40 38 -21 395 -100 568 -125 52 -8 136 -21 185 -29
296 -50 1004 -51 1290 -2 44 8 118 19 165 26 125 16 572 114 595 130 6 4 39
13 75 20 36 8 79 19 97 27 62 25 54 4 -10 -27 -23 -11 -60 -32 -82 -45 -22
-14 -56 -33 -75 -42 -19 -10 -46 -26 -60 -36 -14 -10 -50 -33 -80 -52 -30 -19
-60 -38 -65 -42 -6 -4 -37 -26 -70 -48 -61 -41 -168 -119 -218 -158 -202 -161
-459 -439 -581 -627 -16 -25 -37 -56 -46 -70 -46 -70 -119 -215 -93 -185 5 6
36 51 69 100 32 50 67 96 77 103 9 7 17 18 17 24 0 6 9 20 20 32 11 12 48 55
83 96 69 83 173 195 257 275 136 130 378 316 528 405 39 24 72 46 72 49 0 3
15 12 33 20 17 8 40 20 49 28 16 14 27 21 120 72 23 13 45 27 48 30 3 4 21 13
40 21 19 7 42 19 50 25 8 6 31 18 50 25 19 7 42 19 50 25 15 12 149 82 225
117 22 10 47 23 55 28 8 5 31 16 50 25 19 8 42 19 50 24 16 10 245 125 283
142 12 5 90 45 172 89 83 44 168 89 190 100 22 11 63 33 90 50 28 16 69 39 92
50 23 11 43 24 45 28 2 4 19 15 38 24 19 10 53 29 75 43 22 13 63 36 90 51 28
15 52 30 55 34 3 4 21 15 40 25 19 10 37 21 40 24 3 4 38 26 78 50 40 24 75
47 78 52 2 5 19 15 37 24 18 8 58 34 90 58 31 23 89 65 128 92 40 28 80 58 91
68 14 14 52 22 151 33 73 8 139 16 147 19 8 3 80 11 160 20 136 14 284 35 495
71 219 38 302 54 335 63 19 5 68 15 108 21 56 9 72 16 72 28 -1 29 -29 223
-35 232 -3 4 -14 66 -25 136 -11 71 -33 206 -50 299 -16 94 -37 220 -47 281
l-17 111 64 59 c154 140 320 314 439 458 26 30 58 69 81 96 20 23 96 128 150
205 12 17 39 58 60 92 22 34 44 64 50 68 5 3 10 12 10 19 0 9 -25 15 -82 20
-78 6 -191 28 -318 62 -113 30 -195 56 -205 63 -5 5 -26 14 -46 20 -52 17
-220 105 -303 159 -102 66 -209 154 -284 233 -36 38 -70 69 -76 69 -10 0 -67
-40 -117 -82 -9 -7 -27 -20 -41 -28 -15 -8 -57 -34 -95 -56 -37 -23 -79 -45
-93 -49 -14 -4 -32 -13 -40 -20 -8 -7 -28 -16 -45 -19 -16 -4 -44 -14 -62 -23
-18 -8 -51 -21 -75 -28 l-43 -12 1 -49 c1 -27 13 -128 28 -224 14 -96 29 -196
32 -221 l6 -46 -38 -6 c-22 -4 -65 -7 -96 -7 l-57 0 -41 55 c-62 84 -200 215
-226 215 -7 0 -14 6 -17 13 -7 17 -160 92 -237 115 -142 43 -178 51 -265 57
-90 7 -240 -6 -255 -22 -8 -8 -1 -25 49 -115 44 -82 132 -181 216 -243 22 -16
42 -33 45 -36 11 -14 148 -79 165 -79 10 0 16 -2 14 -4 -11 -10 -395 -37 -674
-46 -170 -6 -357 -15 -415 -20 -58 -5 -175 -12 -260 -16 -142 -6 -153 -5 -141
10 7 9 20 16 28 16 16 0 211 77 228 89 6 5 31 16 58 26 26 10 47 21 47 24 0 4
17 13 38 21 20 7 48 21 62 30 14 10 68 45 120 78 107 69 121 79 199 141 172
137 332 297 443 443 68 89 127 170 152 208 16 25 40 61 53 81 13 19 23 40 23
46 0 7 6 18 13 25 15 16 137 259 137 273 0 6 8 26 19 45 10 19 24 53 31 75 7
22 16 45 20 50 22 30 99 309 130 465 10 52 23 120 29 150 6 30 17 111 25 180
33 276 67 511 90 615 47 214 129 443 220 616 l14 27 -62 16 c-63 18 -192 45
-331 70 -44 8 -162 20 -262 26 -201 13 -487 1 -643 -26 -325 -56 -523 -111
-810 -224 -54 -21 -102 -42 -229 -102 -34 -17 -66 -26 -71 -21 -4 4 -17 37
-28 73 -34 106 -61 182 -71 194 -5 6 -12 22 -16 36 -12 41 -115 268 -165 365
-93 178 -162 299 -172 303 -4 2 -8 9 -8 16 0 10 -113 192 -138 221 -4 6 -17
25 -27 43 -11 17 -23 32 -26 32 -4 0 -10 9 -14 19 -8 26 -71 108 -227 296
-152 182 -327 361 -528 539 -22 20 -130 107 -174 141 -70 55 -69 54 -97 36z
m90 -163 c36 -28 75 -61 87 -72 11 -12 45 -41 74 -66 88 -74 339 -329 439
-446 108 -127 181 -220 181 -233 0 -5 6 -14 13 -18 7 -4 24 -26 39 -48 15 -22
50 -71 78 -110 27 -38 59 -86 70 -105 11 -19 35 -57 52 -85 62 -100 79 -131
95 -167 9 -21 19 -38 23 -38 4 0 17 -21 29 -47 12 -27 26 -55 31 -63 8 -14 66
-135 133 -281 14 -30 33 -75 42 -100 9 -24 30 -80 46 -124 16 -44 36 -102 45
-130 8 -27 19 -59 25 -70 5 -11 16 -40 23 -65 7 -25 16 -44 20 -43 4 1 80 38
169 81 207 102 325 149 480 192 37 11 73 22 79 26 36 22 349 88 548 115 104
15 588 15 685 1 163 -24 331 -55 341 -63 9 -7 6 -19 -7 -46 -11 -21 -19 -43
-19 -49 0 -7 -6 -19 -12 -26 -7 -7 -33 -74 -57 -148 -23 -74 -47 -146 -52
-160 -15 -42 -49 -218 -64 -335 -8 -60 -22 -157 -30 -215 -8 -58 -19 -152 -25
-210 -20 -186 -77 -454 -135 -635 -40 -120 -133 -357 -145 -365 -4 -3 -11 -18
-17 -35 -6 -16 -27 -59 -47 -95 -19 -36 -43 -78 -52 -95 -14 -26 -115 -182
-137 -210 -150 -200 -348 -405 -508 -528 -33 -25 -122 -89 -145 -104 -10 -7
-35 -23 -54 -36 -66 -43 -176 -103 -275 -151 -55 -27 -108 -52 -118 -57 -65
-34 -316 -109 -452 -135 -44 -8 -100 -19 -125 -24 -176 -37 -2709 -36 -2875 1
-27 6 -95 19 -150 29 -133 24 -289 73 -435 136 -72 31 -274 135 -291 150 -8 8
-19 14 -22 14 -9 0 -189 123 -252 172 -142 111 -344 309 -437 430 -85 110
-128 169 -128 177 0 5 -7 14 -16 22 -8 7 -25 31 -36 53 -11 23 -24 43 -28 46
-6 5 -120 209 -120 216 0 4 -43 101 -75 169 -64 138 -146 420 -175 605 -10 63
-23 135 -29 160 -5 25 -15 104 -21 175 -6 72 -15 157 -20 190 -5 33 -16 114
-25 180 -16 126 -57 319 -79 370 -8 17 -17 46 -21 65 -9 40 -66 191 -89 235
-14 27 -22 75 -12 75 2 0 61 9 132 21 71 11 161 25 199 31 87 13 575 14 670 0
268 -37 597 -113 720 -167 17 -7 48 -18 70 -25 22 -6 59 -20 82 -31 24 -10 46
-19 49 -19 10 0 122 -52 250 -116 l122 -61 25 71 c14 39 42 121 62 181 21 61
41 115 45 120 4 6 11 21 15 35 4 14 18 49 31 78 13 29 24 55 24 59 0 12 211
428 245 483 19 30 38 62 41 70 4 8 19 33 33 55 14 22 31 48 36 56 6 9 28 43
50 75 22 33 44 66 50 75 23 36 52 77 99 139 93 122 111 145 116 150 3 3 16 19
29 35 70 92 366 397 485 500 32 28 68 59 80 70 12 11 45 38 74 60 29 21 52 43
52 47 0 15 12 8 79 -44z m-3734 -5648 c343 -31 1325 -78 1865 -90 1703 -36
1876 -37 3270 -5 657 14 887 22 1325 45 110 5 351 17 535 26 184 9 349 18 367
19 18 1 38 -2 45 -7 8 -5 -2 -8 -27 -9 -34 -1 -36 -2 -15 -8 14 -4 52 -5 84
-1 32 3 75 4 95 0 22 -4 -39 -11 -159 -19 -107 -7 -222 -17 -255 -22 -33 -5
-217 -15 -410 -24 -192 -8 -404 -19 -470 -25 -106 -9 -404 -20 -1410 -50 -372
-11 -2151 -11 -2480 0 -143 5 -411 14 -595 20 -445 14 -731 27 -925 40 -88 6
-268 18 -400 26 -345 21 -552 39 -536 45 7 2 -20 4 -60 3 -41 -1 -57 0 -36 3
44 5 47 15 10 30 -25 10 -21 11 32 11 33 0 101 -3 150 -8z m-735 -55 c36 -8
160 -21 275 -30 116 -8 242 -20 280 -26 39 -5 225 -19 415 -30 190 -11 400
-23 467 -28 68 -5 288 -14 490 -20 203 -7 447 -16 544 -21 384 -21 1457 -32
2344 -26 850 6 1076 11 1700 35 143 6 406 15 585 21 179 6 359 15 400 20 41 5
172 14 290 20 118 5 280 13 359 16 113 6 143 5 137 -5 -6 -9 -21 -10 -50 -6
-28 5 -38 4 -31 -3 6 -6 33 -13 60 -15 l50 -4 -55 0 c-30 0 -73 -5 -95 -11
-22 -6 -164 -18 -315 -27 -151 -8 -313 -19 -360 -25 -47 -5 -260 -16 -475 -25
-214 -8 -462 -19 -550 -25 -697 -45 -3519 -45 -4220 0 -82 5 -269 14 -415 20
-262 11 -403 20 -655 40 -71 6 -215 17 -320 26 -248 19 -671 60 -760 73 -38 6
-106 15 -150 19 -63 7 -70 10 -33 11 45 1 74 15 40 19 -9 1 -57 8 -107 16
l-90 15 90 -5 c50 -3 119 -12 155 -19z m380 -416 c123 -19 142 -27 180 -76 33
-44 34 -48 33 -133 -1 -95 -12 -124 -67 -172 l-31 -26 25 -12 c14 -6 36 -27
49 -46 22 -32 24 -45 24 -138 0 -90 -4 -111 -26 -157 -27 -57 -69 -91 -125
-103 -28 -7 -327 10 -341 19 -6 3 7 237 33 585 8 113 15 222 16 244 l0 39 83
-7 c45 -4 111 -12 147 -17z m8133 -11 c6 -27 21 -202 42 -488 8 -113 18 -235
21 -271 l7 -66 -33 -6 c-18 -4 -52 -7 -75 -7 -42 0 -42 0 -48 43 -4 23 -13
148 -22 277 -8 129 -22 297 -31 373 -9 76 -13 141 -10 145 7 6 76 19 117 21
20 1 28 -5 32 -21z m-232 -58 c3 -30 3 -59 -1 -63 -4 -4 -42 -11 -86 -15 l-79
-7 -3 -55 c-2 -30 1 -91 8 -135 13 -92 40 -516 33 -527 -2 -5 -35 -8 -73 -8
-64 0 -70 2 -74 23 -3 12 -10 119 -16 237 -7 118 -16 240 -21 270 -5 30 -9 85
-9 122 l0 67 -85 -6 -85 -6 0 67 c0 36 1 66 3 67 7 3 427 26 452 25 29 -1 30
-3 36 -56z m-7383 35 c2 -2 0 -83 -5 -180 -6 -131 -5 -179 4 -186 6 -6 46 -9
90 -7 l78 3 10 177 c6 97 12 178 15 180 3 2 38 2 78 0 84 -4 76 21 62 -197
-27 -418 -39 -623 -40 -648 l0 -28 -72 3 -73 3 1 50 c0 28 2 111 4 185 l3 135
-83 8 c-46 4 -84 6 -86 4 -7 -7 -13 -65 -19 -193 -9 -196 -1 -180 -82 -174
l-68 5 -3 50 c-2 28 3 149 12 270 8 121 18 296 22 388 l6 169 72 -7 c39 -4 73
-9 74 -10z m6806 -282 c10 -148 22 -306 26 -353 5 -47 9 -120 9 -162 l1 -78
-60 -1 c-33 -1 -66 -2 -72 -3 -10 -1 -16 43 -25 159 -18 229 -42 613 -43 663
l0 42 73 0 73 0 18 -267z m-5984 221 c6 -14 17 -80 25 -147 8 -67 21 -156 29
-197 8 -41 20 -127 26 -190 6 -63 18 -146 26 -183 8 -38 14 -87 14 -109 l0
-41 -65 6 c-80 8 -85 11 -85 47 0 16 -5 51 -11 78 l-12 49 -84 7 c-46 4 -87 4
-92 1 -6 -3 -17 -39 -26 -80 l-17 -75 -69 0 c-75 0 -79 4 -59 56 6 15 20 71
30 123 11 53 27 123 35 156 7 33 26 114 40 180 15 66 35 156 45 200 10 44 22
95 25 113 l7 32 104 0 c103 0 105 0 114 -26z m5594 3 c72 -41 95 -95 96 -217
0 -83 -13 -130 -45 -160 -31 -29 -31 -38 -1 -51 41 -19 67 -98 73 -219 2 -58
9 -120 15 -138 5 -18 8 -35 5 -38 -2 -3 -34 -8 -70 -11 -60 -5 -66 -4 -77 17
-7 13 -15 75 -20 139 -4 64 -12 127 -19 139 -22 42 -103 66 -140 43 -13 -8
-13 -32 -2 -176 8 -91 11 -168 8 -172 -4 -3 -37 -8 -75 -11 l-69 -4 -11 158
c-10 123 -42 668 -42 706 0 7 81 13 240 16 82 1 100 -1 134 -21z m-5052 -7
c78 -12 118 -33 148 -78 23 -33 25 -47 25 -137 0 -88 -3 -107 -25 -148 -14
-26 -33 -50 -42 -53 -24 -7 -22 -21 5 -39 43 -28 59 -100 56 -247 -2 -73 1
-144 6 -157 l8 -24 -74 7 c-40 3 -78 11 -84 17 -6 6 -9 63 -7 145 3 183 -8
204 -107 204 l-48 0 -7 -61 c-3 -34 -6 -113 -6 -175 0 -62 -4 -115 -10 -119
-5 -3 -39 -3 -76 1 l-67 7 6 166 c15 378 29 687 33 699 3 10 27 12 106 7 57
-4 129 -11 160 -15z m4578 13 c0 -5 -16 -37 -35 -73 -19 -36 -45 -85 -56 -110
-12 -25 -25 -47 -28 -50 -3 -3 -21 -35 -40 -71 -26 -52 -32 -73 -26 -97 3 -18
10 -32 15 -32 5 0 12 -10 15 -22 4 -13 49 -108 101 -212 51 -104 91 -193 88
-197 -3 -5 -39 -9 -80 -9 -68 0 -75 2 -83 23 -16 38 -31 71 -40 87 -5 8 -33
64 -61 124 l-51 109 -26 -44 c-25 -43 -25 -48 -20 -176 l6 -133 -74 0 -73 0
-6 73 c-7 99 -26 604 -26 705 l0 82 69 0 68 0 7 -61 c3 -34 6 -116 7 -183 0
-100 2 -117 12 -96 6 14 14 27 18 30 4 3 29 49 55 103 27 53 55 110 63 125 7
15 24 44 38 64 24 35 28 37 87 41 33 2 64 4 69 5 4 1 7 -1 7 -5z m-755 -34
c78 -22 125 -95 125 -197 l0 -33 -67 3 -66 3 -11 44 c-9 36 -17 47 -41 57 -37
15 -68 4 -91 -32 -17 -25 -17 -29 0 -77 17 -49 39 -73 120 -139 86 -68 143
-135 164 -191 64 -170 -19 -304 -195 -315 -81 -5 -146 17 -190 66 -35 38 -46
76 -47 157 l-1 50 66 3 66 3 5 -44 c3 -24 11 -56 19 -73 12 -25 20 -29 61 -32
44 -3 49 -1 68 30 25 42 25 61 -2 114 -14 29 -48 65 -104 109 -118 94 -160
147 -179 229 -14 61 -14 73 0 129 18 72 54 113 118 133 52 16 130 17 182 3z
m-3160 -9 c3 -5 14 -71 25 -147 18 -126 44 -289 83 -528 9 -49 18 -114 22
-143 l6 -53 -73 3 -73 3 -8 55 c-5 30 -10 70 -13 88 l-5 32 -94 0 -95 0 -5
-27 c-4 -16 -12 -50 -19 -78 l-13 -50 -67 -3 -68 -3 7 43 c4 24 16 84 26 133
11 50 28 133 39 185 10 52 33 158 50 235 17 77 36 168 43 203 l11 62 107 0
c59 0 111 -4 114 -10z m1399 -28 c58 -40 75 -69 84 -145 l8 -67 -66 0 -66 0
-2 32 c-4 56 -26 78 -77 78 -49 0 -70 -15 -80 -58 -11 -53 25 -113 122 -197
123 -107 148 -141 163 -221 23 -121 -22 -235 -106 -270 -39 -16 -171 -19 -210
-4 -81 31 -126 108 -122 208 l3 64 65 0 65 0 5 -61 c4 -48 10 -65 25 -74 82
-49 145 -2 131 97 -8 48 -50 99 -153 181 -74 58 -120 132 -128 204 -13 114 20
197 96 244 59 36 184 30 243 -11z m-724 19 c23 -6 25 -12 28 -69 l3 -62 -86 0
-85 0 -1 -32 c-1 -18 -5 -184 -8 -368 l-6 -335 -49 -3 c-27 -2 -61 0 -74 3
l-25 6 4 367 4 367 -82 3 -83 3 0 64 0 65 218 -1 c119 -1 228 -4 242 -8z
m1745 -56 c11 -33 24 -65 28 -71 4 -7 16 -38 27 -70 23 -72 64 -185 84 -239
15 -38 16 -26 14 200 l-1 240 58 3 c32 2 62 -1 66 -5 8 -8 35 -851 28 -857 -8
-7 -127 -13 -136 -7 -5 3 -14 22 -20 41 -6 19 -23 67 -37 105 -71 195 -88 244
-100 285 -20 67 -67 163 -62 125 3 -16 6 -149 8 -295 l3 -265 -65 0 -65 0 -6
85 c-4 47 -9 241 -13 432 l-7 347 68 3 c37 2 77 3 88 3 16 0 25 -13 40 -60z
m-444 -55 c9 -58 19 -112 23 -120 3 -9 15 -63 25 -120 35 -190 60 -324 75
-390 8 -36 17 -80 20 -97 l6 -33 -75 0 c-69 0 -75 2 -79 23 -2 12 -9 48 -16
80 l-11 57 -95 0 c-108 0 -106 2 -119 -103 l-7 -57 -69 0 c-79 0 -79 0 -55 99
8 31 19 97 26 146 6 50 16 104 21 120 5 17 18 89 28 160 17 110 31 187 57 323
4 22 7 23 116 20 l112 -3 17 -105z m-3656 -934 c88 -8 279 -20 425 -26 624
-25 785 -32 960 -41 559 -27 3063 -19 3535 11 83 5 312 14 510 20 352 11 649
25 770 36 133 13 287 16 296 7 6 -6 -18 -8 -66 -6 -49 2 -74 0 -70 -7 3 -5 18
-10 33 -11 l27 -1 -25 -8 c-20 -7 -16 -8 22 -9 26 -1 50 4 53 9 3 6 12 10 18
10 7 0 6 -4 -3 -11 -11 -8 -5 -9 25 -4 22 4 36 3 32 -1 -9 -9 -231 -26 -637
-49 -146 -8 -386 -21 -535 -30 -148 -8 -468 -20 -710 -25 -242 -6 -613 -15
-825 -20 -212 -6 -581 -10 -820 -10 -639 0 -2026 36 -2292 60 -57 5 -227 14
-378 20 -151 6 -293 15 -315 20 -22 5 -137 14 -255 22 -189 11 -205 14 -135
19 44 3 84 1 90 -3 5 -4 32 -8 60 -8 l50 0 -25 20 c-14 10 -34 21 -45 23 -48
10 83 6 230 -7z m-953 -55 c13 -5 140 -16 283 -25 143 -10 276 -21 295 -26 30
-9 234 -22 945 -60 88 -5 464 -19 835 -32 861 -29 2181 -31 3085 -5 962 28
1191 37 1395 52 263 19 729 39 737 31 4 -3 -29 -6 -73 -7 -50 0 -72 -3 -59 -8
11 -5 -11 -6 -51 -3 -46 3 -78 0 -90 -7 -16 -10 -10 -11 34 -8 63 5 79 -9 19
-17 -140 -18 -912 -60 -1422 -76 -187 -6 -434 -15 -550 -20 -115 -5 -601 -12
-1080 -16 -853 -6 -1477 2 -1970 26 -121 6 -373 18 -560 26 -187 8 -401 19
-475 24 -74 5 -211 14 -305 20 -93 6 -183 13 -200 16 -50 7 -121 14 -340 29
-253 19 -297 25 -270 37 13 5 7 6 -19 2 -56 -8 -421 27 -400 39 11 6 36 6 68
-1 68 -13 126 -15 107 -3 -11 7 -10 10 5 14 30 8 31 7 56 -2z m7733 -233 c-11
-6 -24 -15 -30 -20 -10 -7 -239 -159 -280 -185 -11 -7 -40 -24 -65 -38 -25
-14 -65 -39 -90 -55 -25 -16 -83 -51 -129 -77 -46 -26 -100 -58 -120 -69 -199
-116 -767 -404 -797 -404 -4 0 -25 -9 -48 -20 -53 -25 -195 -80 -207 -80 -5 0
-28 -8 -52 -19 -146 -65 -632 -202 -832 -235 -49 -8 -104 -19 -121 -24 -17 -6
-80 -15 -140 -21 -60 -7 -131 -16 -159 -21 -168 -31 -662 -42 -940 -20 -82 7
-153 14 -156 15 -3 2 -81 13 -173 25 -93 11 -172 23 -177 26 -5 3 -57 13 -116
23 -60 11 -162 33 -228 51 -66 17 -142 37 -170 44 -70 18 -215 66 -245 81 -14
6 -47 18 -75 25 -27 7 -54 16 -60 21 -5 4 -41 18 -80 32 -129 45 -176 64 -188
76 -6 6 -17 11 -24 11 -36 0 -734 349 -770 386 -8 8 -20 14 -26 14 -15 1 -66
39 -52 40 6 0 21 -7 33 -16 12 -8 22 -10 22 -5 0 18 18 12 24 -6 4 -12 16 -18
36 -18 25 0 28 2 15 12 -23 16 -6 23 62 26 32 2 68 9 80 15 28 16 33 15 33 -3
0 -8 5 -15 10 -15 6 0 10 9 10 19 0 14 5 18 20 14 11 -3 27 0 34 7 8 6 23 11
33 10 44 -5 65 1 70 19 6 23 39 32 106 29 37 -2 51 2 58 15 6 9 21 17 34 17
14 0 24 5 22 11 -1 7 20 18 47 25 27 7 52 18 56 25 6 8 26 10 69 5 40 -5 61
-3 61 4 0 5 7 10 16 10 10 0 14 6 10 15 -3 9 0 15 9 15 18 0 31 -20 13 -21 -7
0 -4 -4 7 -8 11 -4 52 -4 90 -1 39 4 62 8 52 8 -29 3 -9 22 23 22 23 0 28 4
23 16 -5 15 1 16 50 12 32 -3 57 -1 57 4 0 4 10 9 23 9 l22 2 -22 4 c-24 4
-31 19 -13 25 5 2 -36 5 -93 6 -56 2 -165 8 -242 12 -128 8 -123 8 65 4 113
-2 320 -7 460 -11 380 -12 2173 -8 2740 6 472 11 660 18 1100 41 107 5 294 14
415 20 121 5 263 15 315 21 108 12 328 26 440 27 61 1 71 -1 55 -10z"/>
<path d="M6391 11495 c-24 -19 -54 -45 -66 -57 -13 -13 -67 -63 -122 -113 -54
-49 -138 -134 -188 -189 -49 -54 -100 -108 -111 -120 -36 -35 -196 -238 -216
-273 -11 -18 -23 -33 -27 -33 -6 0 -92 -127 -196 -290 -32 -50 -120 -200 -136
-233 -8 -15 -30 -60 -50 -100 -62 -124 -109 -225 -109 -235 0 -6 -6 -12 -12
-14 -7 -3 -13 -22 -13 -46 0 -22 -2 -36 -6 -31 -10 16 -58 -123 -54 -156 2
-16 2 -22 -1 -11 -5 15 -10 10 -25 -24 -19 -43 -14 -70 11 -55 8 5 8 11 -1 21
-9 11 -9 18 -1 26 8 8 13 4 18 -16 3 -14 10 -26 15 -26 6 0 5 9 -1 21 -9 15
-8 24 2 36 7 9 12 24 10 34 -2 14 1 17 13 13 9 -4 14 -9 11 -11 -2 -3 4 -13
14 -23 22 -22 76 -35 85 -21 3 6 15 11 26 11 21 0 26 16 7 23 -7 2 12 4 42 4
37 0 69 7 97 21 32 17 60 22 118 22 60 0 75 3 75 15 0 13 24 15 159 15 118 0
161 -3 165 -12 5 -10 7 -10 12 0 3 6 14 12 24 12 10 0 21 6 24 13 5 10 7 10
12 0 7 -16 114 -18 114 -3 0 6 -25 10 -55 10 -40 0 -55 4 -55 14 0 20 101 29
116 10 15 -19 32 -17 79 9 34 19 46 21 83 13 23 -6 42 -13 42 -18 0 -4 18 -8
40 -8 29 0 40 4 40 15 0 13 15 15 88 12 48 -2 98 0 112 4 14 4 19 7 13 8 -7 1
-13 6 -13 11 0 15 83 11 104 -5 19 -14 18 -15 -10 -15 -22 0 -26 -3 -14 -10
25 -16 140 -13 140 4 0 17 -22 26 -66 26 -27 0 -34 4 -34 20 0 17 7 20 40 20
29 0 40 4 40 15 0 10 10 15 34 15 19 0 42 3 52 7 11 4 15 3 11 -4 -4 -6 0 -13
8 -17 19 -7 47 3 39 15 -3 5 25 7 65 4 42 -3 72 -1 76 5 4 6 -5 10 -19 10 -14
0 -26 5 -26 10 0 6 23 10 51 10 46 0 51 2 46 20 -4 17 0 20 29 20 25 0 34 4
34 16 0 14 9 16 52 12 29 -3 65 -2 80 3 17 4 28 4 28 -2 0 -6 8 -5 20 1 17 9
20 8 20 -10 0 -11 6 -20 14 -20 22 0 29 19 10 27 -16 6 -15 7 2 20 23 16 71
17 77 1 8 -19 25 9 32 54 7 39 25 53 25 19 0 -21 32 -37 51 -26 6 4 8 14 5 22
-3 8 -1 11 5 8 5 -4 9 -14 8 -23 -2 -29 1 -42 10 -42 15 0 3 44 -28 102 -15
30 -30 61 -33 69 -4 12 -8 12 -24 -1 -17 -14 -18 -14 -6 2 15 18 2 51 -57 153
-17 28 -36 61 -43 75 -17 33 -165 257 -192 291 -12 14 -28 36 -36 49 -29 43
-90 125 -115 155 -14 17 -29 35 -33 40 -127 167 -582 615 -624 615 -7 0 -33
-16 -57 -35z"/>
<path d="M2940 9641 c-25 -5 -88 -14 -140 -20 -52 -7 -99 -17 -104 -21 -5 -5
-3 -18 6 -32 39 -61 112 -311 138 -475 10 -62 21 -117 24 -122 3 -4 14 -93 25
-197 26 -248 58 -485 76 -554 8 -30 19 -86 26 -125 6 -38 15 -74 19 -80 5 -5
16 -39 25 -75 9 -36 23 -79 31 -97 7 -17 14 -34 14 -38 0 -15 72 -185 109
-256 65 -128 125 -234 133 -237 4 -2 8 -8 8 -13 0 -9 50 -86 86 -134 45 -61
100 -131 109 -141 5 -7 24 -29 40 -49 67 -84 249 -255 354 -335 18 -14 45 -34
59 -46 59 -45 138 -98 203 -133 24 -13 46 -27 49 -31 7 -9 233 -120 245 -120
5 0 27 -8 49 -19 85 -39 214 -78 381 -117 117 -27 400 -39 573 -25 202 16 312
34 312 50 0 5 -12 14 -27 20 -16 6 -53 27 -83 46 -30 19 -62 38 -70 41 -18 9
-138 100 -199 151 -60 51 -149 140 -191 193 -19 24 -42 51 -50 60 -8 9 -19 24
-25 32 -5 8 -31 46 -57 84 -25 38 -52 81 -59 97 -7 15 -16 27 -20 27 -4 0 -11
10 -15 23 -4 12 -24 52 -45 89 -21 37 -48 96 -60 130 -12 35 -26 68 -30 73 -4
6 -15 37 -24 70 -10 33 -21 65 -25 70 -3 6 -12 37 -19 70 -7 33 -19 78 -26
100 -29 81 -65 332 -75 520 -14 257 0 514 39 750 17 99 37 203 45 230 7 28 17
69 20 92 7 37 5 43 -16 54 -13 6 -25 15 -28 19 -4 5 -244 124 -305 150 -199
87 -539 188 -725 215 -52 8 -122 20 -155 26 -70 14 -559 21 -625 10z"/>
<path d="M9390 9640 c-30 -5 -109 -15 -175 -24 -66 -9 -140 -23 -165 -31 -25
-7 -68 -18 -96 -24 -100 -20 -390 -114 -409 -132 -5 -5 -15 -9 -22 -9 -16 0
-99 -38 -290 -132 -118 -58 -143 -74 -143 -91 0 -12 11 -71 24 -132 63 -282
86 -495 86 -801 0 -210 -14 -410 -35 -504 -8 -36 -19 -92 -25 -125 -19 -111
-108 -397 -130 -419 -6 -6 -10 -16 -10 -23 0 -8 -22 -60 -49 -116 -48 -98 -80
-153 -142 -244 -16 -23 -29 -46 -29 -51 0 -5 -7 -12 -15 -16 -9 -3 -19 -14
-23 -25 -16 -44 -197 -232 -333 -346 -44 -37 -212 -145 -260 -168 -27 -12 -48
-25 -49 -29 -1 -18 216 -45 430 -54 275 -12 613 47 828 142 29 13 57 24 62 24
9 0 119 52 150 70 8 5 33 18 55 29 91 46 306 186 359 233 14 13 39 34 56 48
49 39 251 240 297 295 131 157 217 285 325 485 37 70 126 272 134 305 4 17 10
35 14 40 24 31 106 361 130 522 10 67 21 130 24 141 4 10 15 99 26 198 43 396
90 615 181 843 16 41 26 78 22 81 -5 4 -80 17 -168 29 -125 16 -205 21 -370
20 -115 -1 -235 -5 -265 -9z"/>
<path d="M6046 7935 c3 -22 9 -42 13 -45 5 -3 13 -21 20 -40 6 -20 19 -43 29
-52 9 -9 35 -35 57 -57 22 -23 44 -41 49 -41 5 0 17 -7 26 -15 23 -21 125 -45
190 -45 59 0 190 25 199 37 3 5 30 26 59 48 54 41 93 89 111 138 13 35 13 37
1 37 -5 0 -10 -8 -10 -19 0 -10 -7 -24 -15 -31 -18 -15 -20 1 -3 18 6 6 8 15
4 19 -4 5 -14 0 -21 -10 -10 -13 -14 -15 -18 -5 -3 8 -6 6 -6 -5 -1 -10 -6
-15 -12 -12 -5 4 -18 0 -28 -9 -26 -24 -157 -55 -232 -56 -89 0 -211 37 -290
89 -35 22 -69 41 -76 41 -7 0 -13 7 -13 15 0 8 -6 12 -14 9 -8 -3 -17 2 -20
13 -3 10 -3 0 0 -22z"/>
<path d="M2327 5309 c-3 -57 -4 -106 -2 -108 2 -2 24 -6 49 -8 40 -5 48 -2 76
25 27 27 30 37 30 90 0 73 -16 91 -92 99 l-55 5 -6 -103z"/>
<path d="M2310 5055 c-4 -5 -9 -64 -11 -130 l-4 -120 54 -3 c30 -2 64 -1 76 2
35 9 55 57 55 133 0 63 -3 72 -27 95 -22 20 -41 27 -81 30 -30 1 -57 -1 -62
-7z"/>
<path d="M3621 5222 c-7 -31 -21 -102 -32 -157 -10 -55 -24 -115 -30 -133 -18
-53 -8 -62 67 -62 l66 0 -7 88 c-3 48 -10 105 -15 127 -5 22 -12 73 -16 113
-3 40 -10 74 -14 77 -4 2 -12 -21 -19 -53z"/>
<path d="M9139 5313 c-2 -28 3 -165 7 -200 6 -41 8 -43 40 -43 54 0 102 25
110 55 10 39 -1 162 -16 180 -9 10 -31 15 -76 15 -35 0 -64 -3 -65 -7z"/>
<path d="M4176 5279 c-3 -17 -6 -74 -6 -125 l0 -94 58 0 c81 0 96 17 100 119
5 98 -8 116 -89 126 l-56 6 -7 -32z"/>
<path d="M4827 5165 c-21 -93 -42 -208 -51 -282 l-7 -53 64 0 c35 0 66 2 69 5
4 5 -33 280 -50 370 l-8 40 -17 -80z"/>
<path d="M6797 5200 c-3 -8 -11 -53 -17 -100 -6 -47 -15 -98 -20 -115 -5 -16
-12 -63 -15 -102 l-7 -73 72 0 72 0 -5 33 c-12 85 -60 334 -67 352 -6 16 -9
17 -13 5z"/>
<path d="M7323 3793 c-12 -2 -27 -11 -33 -19 -7 -8 -18 -14 -24 -14 -6 0 -24
-17 -41 -38 -27 -34 -30 -43 -30 -113 0 -67 4 -81 30 -121 17 -24 57 -69 90
-98 95 -86 115 -115 115 -171 0 -38 -4 -51 -19 -59 -56 -29 -100 3 -104 76
l-2 39 -59 3 -58 3 4 -68 c3 -56 9 -75 31 -105 63 -83 206 -90 284 -15 43 41
59 114 43 194 -11 50 -20 64 -74 118 -33 33 -75 72 -92 86 -81 66 -88 189 -11
189 47 0 59 -12 65 -65 l5 -47 49 5 c27 4 52 8 57 11 9 6 -4 99 -19 137 -21
49 -126 86 -207 72z"/>
<path d="M6843 3773 c-58 -4 -63 -6 -63 -27 0 -13 -5 -36 -10 -52 -6 -16 -19
-90 -30 -164 -11 -74 -27 -174 -35 -222 -28 -167 -41 -259 -36 -263 2 -3 30
-5 61 -5 l57 0 7 61 c3 33 8 65 12 70 3 5 36 9 74 9 l69 0 16 -57 c9 -32 18
-64 20 -70 3 -9 25 -13 61 -13 l57 0 -7 57 c-4 31 -14 91 -22 132 -19 90 -58
298 -80 431 -21 126 -19 120 -56 118 -18 -1 -61 -3 -95 -5z m47 -225 c6 -40
17 -102 25 -138 7 -36 16 -80 19 -97 l6 -33 -57 0 -56 0 7 78 c6 73 36 262 42
262 1 0 7 -33 14 -72z"/>
<path d="M5450 3764 c0 -4 -11 -61 -24 -128 -14 -66 -30 -157 -36 -201 -6 -44
-16 -98 -22 -120 -15 -57 -45 -264 -39 -270 2 -3 28 -5 57 -5 l52 0 6 38 c4
20 9 50 12 65 l6 28 76 -3 77 -3 8 -50 c13 -74 16 -77 80 -80 31 -1 57 0 57 3
0 19 -42 300 -47 312 -4 8 -17 80 -29 160 -13 80 -28 171 -35 203 l-11 57 -94
0 c-52 0 -94 -3 -94 -6z m115 -303 c14 -68 25 -137 25 -152 0 -28 -1 -29 -51
-29 l-51 0 7 78 c4 42 11 84 16 93 4 9 11 47 15 85 4 38 9 65 10 59 2 -5 15
-66 29 -134z"/>
<path d="M5797 3763 c-4 -3 -7 -28 -7 -55 l0 -48 64 0 c49 0 65 -4 70 -16 3
-9 6 -150 6 -315 l0 -299 60 0 60 0 0 315 0 315 70 0 70 0 0 55 0 55 -193 0
c-107 0 -197 -3 -200 -7z"/>
<path d="M6269 3763 c-3 -32 3 -719 7 -724 2 -4 75 -7 162 -6 l157 2 6 55 c3
30 3 59 -1 63 -5 5 -51 7 -104 5 l-96 -3 0 308 0 307 -65 0 c-36 0 -65 -3 -66
-7z"/>
<path d="M4883 3619 c-34 -22 -57 -58 -68 -109 -5 -21 0 -41 15 -68 29 -52 66
-72 133 -72 48 0 60 4 92 33 42 38 55 92 35 151 -25 77 -135 111 -207 65z"/>
<path d="M7885 3628 c-106 -37 -124 -162 -33 -232 27 -20 46 -26 86 -26 47 0
55 4 98 45 45 42 46 46 40 86 -15 94 -108 156 -191 127z"/>
<path d="M4113 10898 c-6 -7 -17 -33 -26 -58 -9 -25 -32 -90 -52 -145 -20 -55
-45 -138 -56 -185 -11 -47 -25 -103 -30 -125 -15 -63 -24 -454 -10 -468 8 -8
11 -3 11 22 0 111 109 571 166 698 8 17 14 34 14 37 0 3 9 30 21 61 19 51 22
55 47 49 59 -15 291 -94 362 -123 41 -18 91 -39 110 -47 35 -14 86 -40 251
-127 50 -27 93 -47 95 -45 3 4 -26 34 -73 77 -11 10 -52 40 -89 66 -38 26 -71
50 -74 53 -15 20 -345 182 -373 182 -7 1 -30 9 -52 20 -22 11 -45 19 -51 20
-6 0 -46 11 -88 25 -89 29 -90 29 -103 13z"/>
<path d="M8650 10877 c-58 -18 -109 -35 -115 -38 -5 -4 -30 -12 -55 -19 -41
-10 -255 -111 -305 -142 -123 -78 -190 -127 -245 -178 l-65 -61 105 54 c58 29
143 71 190 92 47 20 109 48 138 61 29 13 58 24 65 24 7 0 17 4 23 10 16 16
333 117 338 108 40 -77 149 -425 166 -533 6 -38 15 -79 20 -90 5 -11 16 -71
25 -134 8 -63 17 -117 20 -119 13 -14 20 49 20 183 0 150 -26 336 -60 439 -7
23 -19 61 -25 86 -7 25 -18 59 -25 75 -7 17 -27 72 -46 123 -23 63 -38 92 -49
91 -8 0 -62 -15 -120 -32z"/>
<path d="M2203 7375 c-107 -19 -313 -107 -313 -134 0 -6 50 -45 126 -98 96
-67 297 -151 424 -179 174 -37 457 -24 575 26 77 33 95 43 95 52 0 33 -222
204 -297 229 -18 6 -33 14 -33 18 0 5 -21 14 -47 21 -27 7 -53 17 -59 22 -6 4
-51 17 -100 28 -120 27 -268 33 -371 15z"/>
<path d="M10420 7380 c-129 -16 -258 -58 -365 -119 -33 -18 -72 -40 -87 -48
-31 -16 -188 -161 -188 -173 0 -6 113 -58 164 -74 11 -4 73 -14 138 -22 109
-14 129 -14 246 1 151 21 308 68 430 132 48 25 89 48 92 52 3 3 38 28 78 54
39 27 72 52 72 57 0 5 -15 17 -32 26 -18 9 -35 20 -38 23 -15 21 -168 71 -256
85 -108 17 -150 18 -254 6z"/>
<path d="M6393 2515 c-34 -14 -87 -68 -113 -114 -8 -14 -18 -28 -22 -31 -4 -3
-19 -39 -34 -80 -24 -65 -28 -90 -28 -185 -1 -126 18 -188 87 -283 123 -170
272 -126 374 111 24 55 27 75 26 172 0 95 -4 119 -27 179 -48 123 -102 198
-167 231 -34 18 -55 18 -96 0z"/>
</g>
</svg>
